<?xml version="1.0" encoding="UTF-8"?>
<svg width="1632px" height="277px" viewBox="0 0 1632 277" version="1.1" xmlns="http://www.w3.org/2000/svg" xmlns:xlink="http://www.w3.org/1999/xlink">
    <title>Logo_2</title>
    <g id="Branding" stroke="none" stroke-width="1" fill="none" fill-rule="evenodd">
        <g id="A1" transform="translate(-376, -704)" fill="#090A0C" fill-rule="nonzero">
            <g id="Logo_2" transform="translate(376, 704)">
                <g id="Group" transform="translate(-0, 0)">
                    <path d="M434.2,223.381008 L434.2,199.968153 C424.08,216.449045 407.28,226.557325 386.44,226.557325 C346.5,226.557325 318.44,193.895194 318.44,152.263463 C318.44,110.631731 346.52,78.269253 386.44,78.269253 C407.28,78.269253 424.06,88.3775333 434.2,104.578749 L434.2,81.1658946 L466.04,81.1658946 L466.04,223.381008 L434.2,223.381008 L434.2,223.381008 Z M392.52,109.193399 C368.8,109.193399 350.84,128.570932 350.84,152.263463 C350.84,175.955993 368.78,195.333526 392.52,195.333526 C416.26,195.333526 434.2,175.97597 434.2,152.263463 C434.2,128.550955 416.54,109.193399 392.52,109.193399" id="Shape"></path>
                    <path d="M585.26,203.444123 C577.74,217.028373 564.72,226.577302 545.04,226.577302 C513.78,226.577302 493.52,203.164447 493.52,171.660973 L493.52,81.1858715 L525.36,81.1858715 L525.36,162.991025 C525.36,182.368558 536.64,195.37348 555.16,195.37348 C573.68,195.37348 584.38,183.227562 585.26,165.028662 L585.26,81.2058483 L616.8,81.2058483 L616.8,223.420961 L585.26,223.420961 L585.26,203.484076 L585.26,203.444123 Z" id="Path"></path>
                    <path d="M790.74,78.269253 C832.42,78.269253 864.82,110.352056 864.82,152.263463 C864.82,194.17487 832.4,226.557325 790.74,226.557325 C749.08,226.557325 716.66,193.895194 716.66,152.263463 C716.66,110.631731 748.78,78.269253 790.74,78.269253 M790.74,195.333526 C814.76,195.333526 832.42,175.97597 832.42,152.263463 C832.42,128.550955 814.76,109.193399 790.74,109.193399 C766.72,109.193399 748.78,128.570932 748.78,152.263463 C748.78,175.955993 767.02,195.333526 790.74,195.333526" id="Shape"></path>
                    <path d="M915.46,99.3647944 C922.98,86.6395483 935.42,78.269253 953.08,78.269253 C973.92,78.269253 990.42,88.0978576 997.94,105.737406 C1004.88,89.5561668 1019.06,78.269253 1040.78,78.269253 C1068.86,78.269253 1090.56,99.3647944 1090.56,130.868269 L1090.56,223.361031 L1058.72,223.361031 L1058.72,139.538217 C1058.72,120.18066 1047.44,109.193399 1031.22,109.193399 C1015,109.193399 1002.86,120.18066 1002.86,139.538217 L1002.86,223.361031 L971.02,223.361031 L971.02,139.538217 C971.02,120.18066 959.74,109.193399 943.52,109.193399 C927.3,109.193399 916.02,119.301679 915.44,137.520556 L915.44,223.361031 L883.6,223.361031 L883.6,81.1459178 L915.44,81.1459178 L915.44,99.3647944 L915.46,99.3647944 Z" id="Path"></path>
                    <path d="M1223.96,223.381008 L1223.96,199.968153 C1213.82,216.449045 1197.04,226.557325 1176.2,226.557325 C1136.26,226.557325 1108.18,193.895194 1108.18,152.263463 C1108.18,110.631731 1136.26,78.269253 1176.2,78.269253 C1197.04,78.269253 1213.82,88.3775333 1223.96,104.578749 L1223.96,81.1658946 L1255.8,81.1658946 L1255.8,223.381008 L1223.96,223.381008 L1223.96,223.381008 Z M1182.28,109.193399 C1158.56,109.193399 1140.6,128.570932 1140.6,152.263463 C1140.6,175.955993 1158.54,195.333526 1182.28,195.333526 C1206.02,195.333526 1223.96,175.97597 1223.96,152.263463 C1223.96,128.550955 1206.3,109.193399 1182.28,109.193399" id="Shape"></path>
                    <polygon id="Path" points="1353.02 81.1658946 1353.02 108.334395 1327.26 108.334395 1327.26 223.381008 1295.44 223.381008 1295.44 108.334395 1271.42 108.334395 1271.42 81.1658946 1297.18 81.1658946 1297.18 58.3523451 1327.26 40.9924725 1327.26 81.1658946"></polygon>
                    <polygon id="Path" points="714.04 81.1658946 714.04 108.334395 688.28 108.334395 688.28 223.381008 656.46 223.381008 656.46 108.334395 632.44 108.334395 632.44 81.1658946 658.2 81.1658946 658.2 58.3523451 688.28 40.9924725 688.28 81.1658946"></polygon>
                    <rect id="Rectangle" x="1366.62" y="81.1658946" width="31.84" height="142.215113"></rect>
                    <path d="M1526.66,218.18703 C1517.98,223.381008 1503.8,226.577302 1492.52,226.577302 C1448.24,226.577302 1417.56,193.915171 1417.56,152.283439 C1417.56,110.651708 1448.24,78.2892299 1492.52,78.2892299 C1503.8,78.2892299 1517.98,81.1858715 1526.66,86.1001737 L1526.66,120.220614 C1518.56,114.147655 1506.7,109.233353 1492.52,109.233353 C1468.2,109.233353 1449.98,128.610886 1449.98,152.303416 C1449.98,175.995947 1468.22,195.37348 1492.52,195.37348 C1506.4,195.37348 1518.56,190.75883 1526.66,184.386219 L1526.66,218.207006 L1526.66,218.18703 Z" id="Path"></path>
                    <path d="M1625.36,116.145339 C1616.1,110.07238 1604.24,106.037058 1593.24,106.037058 C1581.08,106.037058 1574.72,112.110017 1574.72,119.920961 C1574.72,125.99392 1578.48,129.170237 1585.42,133.505211 L1608.28,147.089461 C1625.94,157.77707 1632,170.801969 1632,184.665895 C1632,209.237406 1613.18,226.577302 1581.06,226.577302 C1567.46,226.577302 1553.56,222.821656 1544.02,218.486682 L1544.02,185.824551 C1551.26,192.177186 1566.3,199.129126 1579.32,199.129126 C1592.34,199.129126 1599,192.776491 1599,184.386219 C1599,178.612913 1595.82,173.978286 1586.84,168.784308 L1562.52,154.341054 C1547.76,145.671106 1541.98,132.94586 1541.98,119.081934 C1541.98,95.3694268 1559.92,78.3291836 1592.34,78.3291836 C1604.2,78.3291836 1616.36,80.9261726 1625.34,84.1024899 L1625.34,116.185292 L1625.36,116.145339 Z" id="Path"></path>
                    <polygon id="Path" points="1366.92 58.4122756 1366.92 18.178923 1398.46 0 1398.46 40.2133758"></polygon>
                    <g transform="translate(0, 5.174)" id="Group-10">
                        <g transform="translate(132.81, 135.413) rotate(-90) translate(-132.81, -135.413)translate(-2.76, 2.7568)">
                            <polygon id="Path" points="91.12 189.360452 0 134.603937 91.12 76.5512449"></polygon>
                            <path d="M91.12,265.312391 L91.12,189.340475 L182.26,131.227852 L91.12,76.5312681 L91.12,0 L248.56,93.2718587 C262.56,101.562247 271.14,116.624783 271.14,132.865953 L271.14,132.865953 C271.14,149.147076 262.52,164.229589 248.48,172.519977 L91.12,265.292415 L91.12,265.312391 Z" id="Path"></path>
                        </g>
                    </g>
                </g>
            </g>
        </g>
    </g>
</svg>